<?xml version="1.0" encoding="UTF-8"?> <svg xmlns="http://www.w3.org/2000/svg" width="103" height="40" viewBox="0 0 103 40" fill="none"><path d="M42.2456 39.4291H36.4527C36.376 39.4286 36.3026 39.3994 36.2485 39.3476C36.1944 39.2958 36.1641 39.2257 36.1641 39.1526V24.0043C36.1639 23.9681 36.1712 23.9322 36.1856 23.8987C36.2 23.8651 36.2212 23.8346 36.248 23.809C36.2749 23.7833 36.3067 23.7629 36.3419 23.749C36.377 23.7351 36.4146 23.7279 36.4527 23.7279H51.5543C56.7397 23.7279 61.0927 19.6864 61.005 14.7474C60.9599 12.4338 59.964 10.2294 58.2313 8.60759C56.4985 6.98579 54.167 6.07599 51.7377 6.07361H36.5037C36.427 6.0732 36.3536 6.0439 36.2995 5.99211C36.2454 5.94031 36.2151 5.87023 36.2151 5.79719V0.276419C36.2151 0.203371 36.2454 0.133291 36.2995 0.0814963C36.3536 0.0297013 36.427 0.000401364 36.5037 0H51.5017C60.0834 0 67.2444 6.49127 67.3751 14.6653C67.4049 16.6401 67.0225 18.6008 66.2502 20.4336C65.478 22.2664 64.3311 23.9349 62.8763 25.3421C61.4215 26.7492 59.6877 27.8671 57.7756 28.6309C55.8635 29.3946 53.8111 29.7889 51.7377 29.7909H42.8228C42.7458 29.7909 42.672 29.82 42.6176 29.8718C42.5631 29.9237 42.5326 29.994 42.5326 30.0673V39.1572C42.5326 39.2302 42.5022 39.3003 42.4481 39.3521C42.394 39.4039 42.3206 39.4332 42.244 39.4336" fill="white"></path><path d="M15.5226 0.0078125H0.288611C0.211922 0.00821386 0.13852 0.0375138 0.0844405 0.0893088C0.0303615 0.141104 3.2484e-06 0.211183 4.40604e-06 0.284232V23.4547C-0.000205732 23.491 0.00710269 23.5269 0.0215125 23.5604C0.0359222 23.5939 0.0571528 23.6244 0.0839734 23.6501C0.110794 23.6758 0.142681 23.6962 0.177801 23.7101C0.212921 23.724 0.250576 23.7312 0.288611 23.7312H6.07989C6.11806 23.7314 6.15589 23.7243 6.1912 23.7105C6.2265 23.6967 6.25858 23.6764 6.28557 23.6506C6.31256 23.6249 6.33392 23.5944 6.34843 23.5608C6.36294 23.5271 6.37031 23.4911 6.37009 23.4547V6.3548C6.37009 6.31857 6.37761 6.2827 6.39222 6.24924C6.40682 6.21579 6.42822 6.18542 6.45519 6.15987C6.48216 6.13433 6.51416 6.11411 6.54936 6.10038C6.58456 6.08666 6.62226 6.0797 6.6603 6.0799H15.5226C17.9806 6.0799 20.3379 7.00985 22.0762 8.66522C23.8144 10.3206 24.7911 12.5658 24.7915 14.907V29.6088C24.7915 29.6817 24.8219 29.7517 24.8761 29.8032C24.9302 29.8548 25.0036 29.8837 25.0801 29.8837H30.865C30.9031 29.8839 30.9408 29.877 30.976 29.8632C31.0112 29.8495 31.0432 29.8293 31.0701 29.8038C31.0971 29.7782 31.1185 29.7478 31.1331 29.7144C31.1477 29.6809 31.1552 29.6451 31.1552 29.6088V14.907C31.1552 12.9509 30.7507 11.0138 29.9648 9.20652C29.1789 7.39923 28.0269 5.75709 26.5747 4.37385C25.1225 2.99061 23.3984 1.89336 21.501 1.14476C19.6036 0.396152 17.57 0.010853 15.5162 0.010853" fill="white"></path><path d="M102.26 29.7987H87.2126C78.6309 29.7987 71.4683 23.3089 71.3376 15.1349C71.3078 13.1601 71.6901 11.1993 72.4624 9.36638C73.2347 7.53347 74.3815 5.86494 75.8363 4.45763C77.2911 3.05032 79.0248 1.93227 80.937 1.16839C82.8491 0.404517 84.9015 0.0100225 86.975 0.0078125H95.9664C96.0431 0.00821386 96.1165 0.0375138 96.1706 0.0893088C96.2247 0.141104 96.255 0.211183 96.255 0.284232V5.80044C96.255 5.87349 96.2247 5.94357 96.1706 5.99537C96.1165 6.04716 96.0431 6.07646 95.9664 6.07686H87.1583C81.973 6.07686 77.62 10.1183 77.7077 15.0559C77.7523 17.3697 78.748 19.5745 80.4809 21.1966C82.2137 22.8188 84.5454 23.7288 86.975 23.7312H95.8883C95.9265 23.7314 95.9643 23.7244 95.9996 23.7105C96.0349 23.6967 96.067 23.6764 96.094 23.6506C96.121 23.6249 96.1423 23.5944 96.1568 23.5608C96.1714 23.5271 96.1787 23.4911 96.1785 23.4547V14.2722C96.1783 14.2358 96.1857 14.1998 96.2002 14.1662C96.2147 14.1326 96.2361 14.102 96.263 14.0763C96.29 14.0506 96.3221 14.0302 96.3574 14.0164C96.3927 14.0026 96.4305 13.9956 96.4687 13.9958H102.26C102.298 13.9958 102.336 14.0029 102.371 14.0169C102.406 14.0308 102.438 14.0511 102.465 14.0768C102.491 14.1025 102.513 14.133 102.527 14.1665C102.541 14.2001 102.549 14.236 102.549 14.2722V29.5238C102.549 29.5967 102.518 29.6666 102.464 29.7182C102.41 29.7697 102.337 29.7987 102.26 29.7987Z" fill="white"></path></svg> 